<?xml version="1.0" standalone="no"?>
<!DOCTYPE svg PUBLIC "-//W3C//DTD SVG 20010904//EN"
 "http://www.w3.org/TR/2001/REC-SVG-20010904/DTD/svg10.dtd">
<svg version="1.0" xmlns="http://www.w3.org/2000/svg"
 width="260.000000pt" height="260.000000pt" viewBox="0 0 260.000000 260.000000"
 preserveAspectRatio="xMidYMid meet">
<metadata>
Created by potrace 1.14, written by Peter Selinger 2001-2017
</metadata>
<g transform="translate(0.000000,260.000000) scale(0.100000,-0.100000)"
fill="#000000" stroke="none">
<path d="M1158 2291 c-24 -19 -27 -30 -33 -116 -8 -104 -1 -125 40 -125 32 0
43 18 51 84 4 32 12 60 18 62 6 2 56 -4 111 -14 l100 -18 3 -107 3 -107 -678
-2 -678 -3 -3 -21 c-4 -30 17 -34 208 -34 202 0 860 -18 1065 -29 83 -5 160
-5 172 0 33 12 43 66 43 232 0 134 -2 149 -20 167 -11 11 -32 20 -47 20 -64 1
-290 20 -308 25 -13 4 -30 -1 -47 -14z"/>
<path d="M2035 1907 c-13 -20 -13 -31 5 -106 11 -45 20 -99 20 -119 0 -78 53
-122 104 -88 32 21 34 60 6 115 -12 21 -24 56 -27 76 -5 33 -4 37 13 32 17 -5
241 -73 272 -83 7 -2 12 -22 12 -51 0 -26 3 -91 6 -143 l6 -95 -76 -34 c-71
-32 -79 -33 -158 -28 -82 5 -512 -12 -865 -34 -100 -7 -235 -9 -300 -5 -70 3
-134 2 -158 -4 -22 -6 -132 -15 -245 -20 -587 -28 -631 -33 -644 -65 -9 -23 4
-45 31 -51 13 -4 176 -3 361 2 185 5 393 8 462 6 69 -2 154 2 190 8 82 13 589
39 1076 54 145 5 156 7 273 47 67 23 131 49 142 58 15 13 21 37 28 126 10 122
1 296 -17 318 -15 18 -103 42 -207 57 -44 6 -120 20 -170 31 -113 24 -121 24
-140 -4z"/>
<path d="M1760 889 c-118 -4 -408 -12 -645 -18 -413 -10 -776 -25 -954 -39
-91 -8 -118 -24 -92 -56 12 -14 43 -16 215 -16 110 1 332 5 491 10 845 26
1227 33 1234 22 12 -20 33 -209 26 -240 -5 -25 -16 -33 -73 -55 -91 -35 -322
-91 -332 -81 -13 14 -41 124 -35 134 3 6 14 10 24 10 25 0 41 20 41 50 0 52
-29 60 -111 34 -72 -24 -78 -41 -49 -156 47 -194 63 -208 190 -164 42 15 152
46 243 70 91 23 172 48 181 55 32 27 6 357 -35 433 -7 14 -21 18 -57 16 -26
-1 -144 -5 -262 -9z"/>
</g>
</svg>
